<?xml version="1.0" encoding="UTF-8" standalone="no"?>
<!DOCTYPE svg PUBLIC "-//W3C//DTD SVG 1.1//EN"
 "http://www.w3.org/Graphics/SVG/1.1/DTD/svg11.dtd">
<!-- Generated by graphviz version 8.0.5 (20230430.1635)
 -->
<!-- Title: SchemaCrawler_Diagram Pages: 1 -->
<svg width="2104pt" height="1281pt"
 viewBox="0.00 0.00 2104.00 1281.00" xmlns="http://www.w3.org/2000/svg" xmlns:xlink="http://www.w3.org/1999/xlink">
<g id="graph0" class="graph" transform="scale(1 1) rotate(0) translate(4 1277)">
<title>SchemaCrawler_Diagram</title>
<polygon fill="white" stroke="none" points="-4,4 -4,-1277 2100,-1277 2100,4 -4,4"/>
<!-- auth_group_7ca1683e -->
<g id="node1" class="node">
<title>auth_group_7ca1683e</title>
<polygon fill="#e9c2f2" stroke="none" points="883,-222 883,-243 1027,-243 1027,-222 883,-222"/>
<text text-anchor="start" x="884.88" y="-228.7" font-family="Helvetica,sans-Serif" font-weight="bold" font-style="italic" font-size="14.00">public.auth_group</text>
<polygon fill="#e9c2f2" stroke="none" points="1027,-222 1027,-243 1178,-243 1178,-222 1027,-222"/>
<text text-anchor="start" x="1131" y="-227.7" font-family="Helvetica,sans-Serif" font-size="14.00">[table]</text>
<text text-anchor="start" x="885" y="-207.7" font-family="Helvetica,sans-Serif" font-weight="bold" font-style="italic" font-size="14.00">id</text>
<text text-anchor="start" x="974" y="-206.7" font-family="Helvetica,sans-Serif" font-size="14.00"> </text>
<text text-anchor="start" x="1029" y="-206.7" font-family="Helvetica,sans-Serif" font-size="14.00">int4 not null</text>
<text text-anchor="start" x="974" y="-185.7" font-family="Helvetica,sans-Serif" font-size="14.00"> </text>
<text text-anchor="start" x="1029" y="-185.7" font-family="Helvetica,sans-Serif" font-size="14.00">auto&#45;incremented</text>
<text text-anchor="start" x="885" y="-164.7" font-family="Helvetica,sans-Serif" font-size="14.00">name</text>
<text text-anchor="start" x="974" y="-164.7" font-family="Helvetica,sans-Serif" font-size="14.00"> </text>
<text text-anchor="start" x="1029" y="-164.7" font-family="Helvetica,sans-Serif" font-size="14.00">varchar(150) not null</text>
<polygon fill="none" stroke="#888888" points="882,-158 882,-244 1179,-244 1179,-158 882,-158"/>
</g>
<!-- auth_group_permissions_b0dc3f03 -->
<g id="node2" class="node">
<title>auth_group_permissions_b0dc3f03</title>
<polygon fill="#e9c2f2" stroke="none" points="1716,-191.5 1716,-212.5 1960,-212.5 1960,-191.5 1716,-191.5"/>
<text text-anchor="start" x="1717.62" y="-198.2" font-family="Helvetica,sans-Serif" font-weight="bold" font-style="italic" font-size="14.00">public.auth_group_permissions</text>
<polygon fill="#e9c2f2" stroke="none" points="1960,-191.5 1960,-212.5 2087,-212.5 2087,-191.5 1960,-191.5"/>
<text text-anchor="start" x="2040" y="-197.2" font-family="Helvetica,sans-Serif" font-size="14.00">[table]</text>
<text text-anchor="start" x="1718" y="-177.2" font-family="Helvetica,sans-Serif" font-weight="bold" font-style="italic" font-size="14.00">id</text>
<text text-anchor="start" x="1885" y="-176.2" font-family="Helvetica,sans-Serif" font-size="14.00"> </text>
<text text-anchor="start" x="1962" y="-176.2" font-family="Helvetica,sans-Serif" font-size="14.00">int8 not null</text>
<text text-anchor="start" x="1885" y="-155.2" font-family="Helvetica,sans-Serif" font-size="14.00"> </text>
<text text-anchor="start" x="1961.62" y="-155.2" font-family="Helvetica,sans-Serif" font-size="14.00">auto&#45;incremented</text>
<text text-anchor="start" x="1718" y="-134.2" font-family="Helvetica,sans-Serif" font-size="14.00">group_id</text>
<text text-anchor="start" x="1885" y="-134.2" font-family="Helvetica,sans-Serif" font-size="14.00"> </text>
<text text-anchor="start" x="1962" y="-134.2" font-family="Helvetica,sans-Serif" font-size="14.00">int4 not null</text>
<text text-anchor="start" x="1718" y="-113.2" font-family="Helvetica,sans-Serif" font-size="14.00">permission_id</text>
<text text-anchor="start" x="1885" y="-113.2" font-family="Helvetica,sans-Serif" font-size="14.00"> </text>
<text text-anchor="start" x="1962" y="-113.2" font-family="Helvetica,sans-Serif" font-size="14.00">int4 not null</text>
<polygon fill="none" stroke="#888888" points="1715,-106.5 1715,-213.5 2088,-213.5 2088,-106.5 1715,-106.5"/>
</g>
<!-- auth_group_permissions_b0dc3f03&#45;&gt;auth_group_7ca1683e -->
<g id="edge1" class="edge">
<title>auth_group_permissions_b0dc3f03:w&#45;&gt;auth_group_7ca1683e:e</title>
<path fill="none" stroke="black" d="M1705.52,-142.14C1697.83,-149.85 1703.25,-169.67 1689,-178 1494.53,-291.73 1407.72,-213.17 1184.46,-212.01"/>
<polygon fill="black" stroke="black" points="1705.06,-142.3 1715.99,-143.25 1709.78,-140.65 1714.5,-139 1714.5,-139 1714.5,-139 1709.78,-140.65 1713.01,-134.75 1705.06,-142.3 1705.06,-142.3"/>
<polygon fill="black" stroke="black" points="1180.49,-217 1180.51,-207 1182.51,-207.01 1182.49,-217.01 1180.49,-217"/>
<polyline fill="none" stroke="black" points="1179.5,-212 1184.5,-212.01"/>
<text text-anchor="start" x="1254.75" y="-243.95" font-family="Helvetica,sans-Serif" font-size="14.00">auth_group_permissions_group_id_b120cbf9_fk_auth_group_id</text>
</g>
<!-- auth_permission_8e07b3dc -->
<g id="node4" class="node">
<title>auth_permission_8e07b3dc</title>
<polygon fill="#e9c2f2" stroke="none" points="863,-110 863,-131 1047,-131 1047,-110 863,-110"/>
<text text-anchor="start" x="865" y="-116.7" font-family="Helvetica,sans-Serif" font-weight="bold" font-style="italic" font-size="14.00">public.auth_permission</text>
<polygon fill="#e9c2f2" stroke="none" points="1047,-110 1047,-131 1198,-131 1198,-110 1047,-110"/>
<text text-anchor="start" x="1151" y="-115.7" font-family="Helvetica,sans-Serif" font-size="14.00">[table]</text>
<text text-anchor="start" x="865" y="-95.7" font-family="Helvetica,sans-Serif" font-weight="bold" font-style="italic" font-size="14.00">id</text>
<text text-anchor="start" x="1009" y="-94.7" font-family="Helvetica,sans-Serif" font-size="14.00"> </text>
<text text-anchor="start" x="1049" y="-94.7" font-family="Helvetica,sans-Serif" font-size="14.00">int4 not null</text>
<text text-anchor="start" x="1009" y="-73.7" font-family="Helvetica,sans-Serif" font-size="14.00"> </text>
<text text-anchor="start" x="1049" y="-73.7" font-family="Helvetica,sans-Serif" font-size="14.00">auto&#45;incremented</text>
<text text-anchor="start" x="865" y="-52.7" font-family="Helvetica,sans-Serif" font-size="14.00">name</text>
<text text-anchor="start" x="1009" y="-52.7" font-family="Helvetica,sans-Serif" font-size="14.00"> </text>
<text text-anchor="start" x="1049" y="-52.7" font-family="Helvetica,sans-Serif" font-size="14.00">varchar(255) not null</text>
<text text-anchor="start" x="865" y="-31.7" font-family="Helvetica,sans-Serif" font-size="14.00">content_type_id</text>
<text text-anchor="start" x="1009" y="-31.7" font-family="Helvetica,sans-Serif" font-size="14.00"> </text>
<text text-anchor="start" x="1049" y="-31.7" font-family="Helvetica,sans-Serif" font-size="14.00">int4 not null</text>
<text text-anchor="start" x="865" y="-10.7" font-family="Helvetica,sans-Serif" font-size="14.00">codename</text>
<text text-anchor="start" x="1009" y="-10.7" font-family="Helvetica,sans-Serif" font-size="14.00"> </text>
<text text-anchor="start" x="1049" y="-10.7" font-family="Helvetica,sans-Serif" font-size="14.00">varchar(100) not null</text>
<polygon fill="none" stroke="#888888" points="862,-4 862,-132 1199,-132 1199,-4 862,-4"/>
</g>
<!-- auth_group_permissions_b0dc3f03&#45;&gt;auth_permission_8e07b3dc -->
<g id="edge3" class="edge">
<title>auth_group_permissions_b0dc3f03:w&#45;&gt;auth_permission_8e07b3dc:e</title>
<path fill="none" stroke="black" d="M1704.51,-117.89C1623.32,-116.42 1272.59,-100.82 1204.26,-100.03"/>
<polygon fill="black" stroke="black" points="1704.5,-117.89 1714.45,-122.5 1709.5,-117.94 1714.5,-118 1714.5,-118 1714.5,-118 1709.5,-117.94 1714.55,-113.5 1704.5,-117.89 1704.5,-117.89"/>
<polygon fill="black" stroke="black" points="1200.47,-105.01 1200.53,-95.01 1202.53,-95.02 1202.47,-105.02 1200.47,-105.01"/>
<polyline fill="none" stroke="black" points="1199.5,-100 1204.5,-100.03"/>
<text text-anchor="start" x="1256.62" y="-121.95" font-family="Helvetica,sans-Serif" font-size="14.00">auth_group_permissio_permission_id_84c5c92e_fk_auth_perm</text>
</g>
<!-- users_groups_c22dff01 -->
<g id="node3" class="node">
<title>users_groups_c22dff01</title>
<polygon fill="#e9c2f2" stroke="none" points="1758.5,-461.5 1758.5,-482.5 1917.5,-482.5 1917.5,-461.5 1758.5,-461.5"/>
<text text-anchor="start" x="1760.38" y="-468.2" font-family="Helvetica,sans-Serif" font-weight="bold" font-style="italic" font-size="14.00">public.users_groups</text>
<polygon fill="#e9c2f2" stroke="none" points="1917.5,-461.5 1917.5,-482.5 2044.5,-482.5 2044.5,-461.5 1917.5,-461.5"/>
<text text-anchor="start" x="1997.5" y="-467.2" font-family="Helvetica,sans-Serif" font-size="14.00">[table]</text>
<text text-anchor="start" x="1760.5" y="-447.2" font-family="Helvetica,sans-Serif" font-weight="bold" font-style="italic" font-size="14.00">id</text>
<text text-anchor="start" x="1867.5" y="-446.2" font-family="Helvetica,sans-Serif" font-size="14.00"> </text>
<text text-anchor="start" x="1919.5" y="-446.2" font-family="Helvetica,sans-Serif" font-size="14.00">int8 not null</text>
<text text-anchor="start" x="1867.5" y="-425.2" font-family="Helvetica,sans-Serif" font-size="14.00"> </text>
<text text-anchor="start" x="1919.12" y="-425.2" font-family="Helvetica,sans-Serif" font-size="14.00">auto&#45;incremented</text>
<text text-anchor="start" x="1760.5" y="-404.2" font-family="Helvetica,sans-Serif" font-size="14.00">user_id</text>
<text text-anchor="start" x="1867.5" y="-404.2" font-family="Helvetica,sans-Serif" font-size="14.00"> </text>
<text text-anchor="start" x="1919.5" y="-404.2" font-family="Helvetica,sans-Serif" font-size="14.00">int8 not null</text>
<text text-anchor="start" x="1760.5" y="-383.2" font-family="Helvetica,sans-Serif" font-size="14.00">group_id</text>
<text text-anchor="start" x="1867.5" y="-383.2" font-family="Helvetica,sans-Serif" font-size="14.00"> </text>
<text text-anchor="start" x="1919.5" y="-383.2" font-family="Helvetica,sans-Serif" font-size="14.00">int4 not null</text>
<polygon fill="none" stroke="#888888" points="1757.5,-376.5 1757.5,-483.5 2045.5,-483.5 2045.5,-376.5 1757.5,-376.5"/>
</g>
<!-- users_groups_c22dff01&#45;&gt;auth_group_7ca1683e -->
<g id="edge2" class="edge">
<title>users_groups_c22dff01:w&#45;&gt;auth_group_7ca1683e:e</title>
<path fill="none" stroke="black" d="M1747.72,-387.61C1729.46,-385.97 1720.55,-378.94 1707,-362 1687.13,-337.17 1713.43,-313.11 1689,-292.75 1614.67,-230.81 1346.44,-291.9 1254.75,-261 1218.56,-248.8 1219.27,-215.07 1184.42,-212.2"/>
<polygon fill="black" stroke="black" points="1747.51,-387.6 1757.32,-392.5 1752.5,-387.8 1757.5,-388 1757.5,-388 1757.5,-388 1752.5,-387.8 1757.68,-383.5 1747.51,-387.6 1747.51,-387.6"/>
<polygon fill="black" stroke="black" points="1180.3,-217.04 1180.7,-207.04 1182.7,-207.12 1182.3,-217.12 1180.3,-217.04"/>
<polyline fill="none" stroke="black" points="1179.5,-212 1184.5,-212.2"/>
<text text-anchor="start" x="1292.62" y="-296.95" font-family="Helvetica,sans-Serif" font-size="14.00">users_groups_group_id_2f3517aa_fk_auth_group_id</text>
</g>
<!-- users_f89f9d1e -->
<g id="node12" class="node">
<title>users_f89f9d1e</title>
<polygon fill="#e9c2f2" stroke="none" points="905,-481.5 905,-502.5 1005,-502.5 1005,-481.5 905,-481.5"/>
<text text-anchor="start" x="907" y="-488.2" font-family="Helvetica,sans-Serif" font-weight="bold" font-style="italic" font-size="14.00">public.users</text>
<polygon fill="#e9c2f2" stroke="none" points="1005,-481.5 1005,-502.5 1156,-502.5 1156,-481.5 1005,-481.5"/>
<text text-anchor="start" x="1109" y="-487.2" font-family="Helvetica,sans-Serif" font-size="14.00">[table]</text>
<text text-anchor="start" x="907" y="-467.2" font-family="Helvetica,sans-Serif" font-weight="bold" font-style="italic" font-size="14.00">id</text>
<text text-anchor="start" x="998.75" y="-466.2" font-family="Helvetica,sans-Serif" font-size="14.00"> </text>
<text text-anchor="start" x="1007" y="-466.2" font-family="Helvetica,sans-Serif" font-size="14.00">int8 not null</text>
<text text-anchor="start" x="998.75" y="-445.2" font-family="Helvetica,sans-Serif" font-size="14.00"> </text>
<text text-anchor="start" x="1007" y="-445.2" font-family="Helvetica,sans-Serif" font-size="14.00">auto&#45;incremented</text>
<text text-anchor="start" x="907" y="-424.2" font-family="Helvetica,sans-Serif" font-size="14.00">password</text>
<text text-anchor="start" x="998.75" y="-424.2" font-family="Helvetica,sans-Serif" font-size="14.00"> </text>
<text text-anchor="start" x="1007" y="-424.2" font-family="Helvetica,sans-Serif" font-size="14.00">varchar(128) not null</text>
<text text-anchor="start" x="907" y="-403.2" font-family="Helvetica,sans-Serif" font-size="14.00">last_login</text>
<text text-anchor="start" x="998.75" y="-403.2" font-family="Helvetica,sans-Serif" font-size="14.00"> </text>
<text text-anchor="start" x="1007" y="-403.2" font-family="Helvetica,sans-Serif" font-size="14.00">timestamptz</text>
<text text-anchor="start" x="907" y="-382.2" font-family="Helvetica,sans-Serif" font-size="14.00">first_name</text>
<text text-anchor="start" x="998.75" y="-382.2" font-family="Helvetica,sans-Serif" font-size="14.00"> </text>
<text text-anchor="start" x="1007" y="-382.2" font-family="Helvetica,sans-Serif" font-size="14.00">varchar(150) not null</text>
<text text-anchor="start" x="907" y="-361.2" font-family="Helvetica,sans-Serif" font-size="14.00">last_name</text>
<text text-anchor="start" x="998.75" y="-361.2" font-family="Helvetica,sans-Serif" font-size="14.00"> </text>
<text text-anchor="start" x="1007" y="-361.2" font-family="Helvetica,sans-Serif" font-size="14.00">varchar(150) not null</text>
<text text-anchor="start" x="907" y="-340.2" font-family="Helvetica,sans-Serif" font-size="14.00">email</text>
<text text-anchor="start" x="998.75" y="-340.2" font-family="Helvetica,sans-Serif" font-size="14.00"> </text>
<text text-anchor="start" x="1007" y="-340.2" font-family="Helvetica,sans-Serif" font-size="14.00">varchar(255) not null</text>
<text text-anchor="start" x="907" y="-319.2" font-family="Helvetica,sans-Serif" font-size="14.00">is_staff</text>
<text text-anchor="start" x="998.75" y="-319.2" font-family="Helvetica,sans-Serif" font-size="14.00"> </text>
<text text-anchor="start" x="1007" y="-319.2" font-family="Helvetica,sans-Serif" font-size="14.00">bool not null</text>
<text text-anchor="start" x="907" y="-298.2" font-family="Helvetica,sans-Serif" font-size="14.00">is_active</text>
<text text-anchor="start" x="998.75" y="-298.2" font-family="Helvetica,sans-Serif" font-size="14.00"> </text>
<text text-anchor="start" x="1007" y="-298.2" font-family="Helvetica,sans-Serif" font-size="14.00">bool not null</text>
<text text-anchor="start" x="906.75" y="-277.2" font-family="Helvetica,sans-Serif" font-size="14.00">is_superuser</text>
<text text-anchor="start" x="998.75" y="-277.2" font-family="Helvetica,sans-Serif" font-size="14.00"> </text>
<text text-anchor="start" x="1007" y="-277.2" font-family="Helvetica,sans-Serif" font-size="14.00">bool not null</text>
<polygon fill="none" stroke="#888888" points="904,-270.5 904,-503.5 1157,-503.5 1157,-270.5 904,-270.5"/>
</g>
<!-- users_groups_c22dff01&#45;&gt;users_f89f9d1e -->
<g id="edge9" class="edge">
<title>users_groups_c22dff01:w&#45;&gt;users_f89f9d1e:e</title>
<path fill="none" stroke="black" d="M1747.75,-409.01C1531.56,-409.34 1473.55,-420.89 1254.75,-451.75 1212.65,-457.69 1202.28,-470.09 1162.02,-470.95"/>
<polygon fill="black" stroke="black" points="1747.5,-409.01 1757.5,-413.5 1752.5,-409 1757.5,-409 1757.5,-409 1757.5,-409 1752.5,-409 1757.5,-404.5 1747.5,-409.01 1747.5,-409.01"/>
<polygon fill="black" stroke="black" points="1158.55,-475.99 1158.45,-465.99 1160.45,-465.97 1160.55,-475.97 1158.55,-475.99"/>
<polyline fill="none" stroke="black" points="1157.5,-471 1162.5,-470.95"/>
<text text-anchor="start" x="1317.75" y="-455.95" font-family="Helvetica,sans-Serif" font-size="14.00">users_groups_user_id_f500bee5_fk_users_id</text>
</g>
<!-- django_content_type_f49fe0ba -->
<g id="node7" class="node">
<title>django_content_type_f49fe0ba</title>
<polygon fill="#e9c2f2" stroke="none" points="9,-427.5 9,-448.5 227,-448.5 227,-427.5 9,-427.5"/>
<text text-anchor="start" x="10.75" y="-434.2" font-family="Helvetica,sans-Serif" font-weight="bold" font-style="italic" font-size="14.00">public.django_content_type</text>
<polygon fill="#e9c2f2" stroke="none" points="227,-427.5 227,-448.5 378,-448.5 378,-427.5 227,-427.5"/>
<text text-anchor="start" x="331" y="-433.2" font-family="Helvetica,sans-Serif" font-size="14.00">[table]</text>
<text text-anchor="start" x="11" y="-413.2" font-family="Helvetica,sans-Serif" font-weight="bold" font-style="italic" font-size="14.00">id</text>
<text text-anchor="start" x="151" y="-412.2" font-family="Helvetica,sans-Serif" font-size="14.00"> </text>
<text text-anchor="start" x="229" y="-412.2" font-family="Helvetica,sans-Serif" font-size="14.00">int4 not null</text>
<text text-anchor="start" x="151" y="-391.2" font-family="Helvetica,sans-Serif" font-size="14.00"> </text>
<text text-anchor="start" x="229" y="-391.2" font-family="Helvetica,sans-Serif" font-size="14.00">auto&#45;incremented</text>
<text text-anchor="start" x="11" y="-370.2" font-family="Helvetica,sans-Serif" font-size="14.00">app_label</text>
<text text-anchor="start" x="151" y="-370.2" font-family="Helvetica,sans-Serif" font-size="14.00"> </text>
<text text-anchor="start" x="229" y="-370.2" font-family="Helvetica,sans-Serif" font-size="14.00">varchar(100) not null</text>
<text text-anchor="start" x="11" y="-349.2" font-family="Helvetica,sans-Serif" font-size="14.00">model</text>
<text text-anchor="start" x="151" y="-349.2" font-family="Helvetica,sans-Serif" font-size="14.00"> </text>
<text text-anchor="start" x="229" y="-349.2" font-family="Helvetica,sans-Serif" font-size="14.00">varchar(100) not null</text>
<polygon fill="none" stroke="#888888" points="8,-342.5 8,-449.5 379,-449.5 379,-342.5 8,-342.5"/>
</g>
<!-- auth_permission_8e07b3dc&#45;&gt;django_content_type_f49fe0ba -->
<g id="edge5" class="edge">
<title>auth_permission_8e07b3dc:w&#45;&gt;django_content_type_f49fe0ba:e</title>
<path fill="none" stroke="black" d="M851.65,-36.17C591.48,-45.19 648.55,-412.66 384.21,-416.96"/>
<polygon fill="black" stroke="black" points="851.5,-36.17 861.58,-40.5 856.5,-36.09 861.5,-36 861.5,-36 861.5,-36 856.5,-36.09 861.42,-31.5 851.5,-36.17 851.5,-36.17"/>
<polygon fill="black" stroke="black" points="380.54,-421.99 380.46,-411.99 382.46,-411.98 382.54,-421.98 380.54,-421.99"/>
<polyline fill="none" stroke="black" points="379.5,-417 384.5,-416.96"/>
<text text-anchor="start" x="405" y="-419.95" font-family="Helvetica,sans-Serif" font-size="14.00">auth_permission_content_type_id_2f476e4b_fk_django_co</text>
</g>
<!-- users_user_permissions_31ac9a7d -->
<g id="node5" class="node">
<title>users_user_permissions_31ac9a7d</title>
<polygon fill="#e9c2f2" stroke="none" points="1718,-327.5 1718,-348.5 1958,-348.5 1958,-327.5 1718,-327.5"/>
<text text-anchor="start" x="1719.88" y="-334.2" font-family="Helvetica,sans-Serif" font-weight="bold" font-style="italic" font-size="14.00">public.users_user_permissions</text>
<polygon fill="#e9c2f2" stroke="none" points="1958,-327.5 1958,-348.5 2085,-348.5 2085,-327.5 1958,-327.5"/>
<text text-anchor="start" x="2038" y="-333.2" font-family="Helvetica,sans-Serif" font-size="14.00">[table]</text>
<text text-anchor="start" x="1720" y="-313.2" font-family="Helvetica,sans-Serif" font-weight="bold" font-style="italic" font-size="14.00">id</text>
<text text-anchor="start" x="1885" y="-312.2" font-family="Helvetica,sans-Serif" font-size="14.00"> </text>
<text text-anchor="start" x="1960" y="-312.2" font-family="Helvetica,sans-Serif" font-size="14.00">int8 not null</text>
<text text-anchor="start" x="1885" y="-291.2" font-family="Helvetica,sans-Serif" font-size="14.00"> </text>
<text text-anchor="start" x="1959.62" y="-291.2" font-family="Helvetica,sans-Serif" font-size="14.00">auto&#45;incremented</text>
<text text-anchor="start" x="1720" y="-270.2" font-family="Helvetica,sans-Serif" font-size="14.00">user_id</text>
<text text-anchor="start" x="1885" y="-270.2" font-family="Helvetica,sans-Serif" font-size="14.00"> </text>
<text text-anchor="start" x="1960" y="-270.2" font-family="Helvetica,sans-Serif" font-size="14.00">int8 not null</text>
<text text-anchor="start" x="1720" y="-249.2" font-family="Helvetica,sans-Serif" font-size="14.00">permission_id</text>
<text text-anchor="start" x="1885" y="-249.2" font-family="Helvetica,sans-Serif" font-size="14.00"> </text>
<text text-anchor="start" x="1960" y="-249.2" font-family="Helvetica,sans-Serif" font-size="14.00">int4 not null</text>
<polygon fill="none" stroke="#888888" points="1717,-242.5 1717,-349.5 2086,-349.5 2086,-242.5 1717,-242.5"/>
</g>
<!-- users_user_permissions_31ac9a7d&#45;&gt;auth_permission_8e07b3dc -->
<g id="edge4" class="edge">
<title>users_user_permissions_31ac9a7d:w&#45;&gt;auth_permission_8e07b3dc:e</title>
<path fill="none" stroke="black" d="M1706.96,-252.54C1679.92,-242.46 1720.84,-182.67 1689,-156.75 1651.53,-126.25 1300.8,-149.62 1254.75,-135 1228.67,-126.72 1228.49,-103.01 1204.31,-100.26"/>
<polygon fill="black" stroke="black" points="1706.61,-252.49 1715.82,-258.45 1711.56,-253.25 1716.5,-254 1716.5,-254 1716.5,-254 1711.56,-253.25 1717.18,-249.55 1706.61,-252.49 1706.61,-252.49"/>
<polygon fill="black" stroke="black" points="1200.23,-105.05 1200.77,-95.06 1202.77,-95.17 1202.22,-105.16 1200.23,-105.05"/>
<polyline fill="none" stroke="black" points="1199.5,-100 1204.49,-100.27"/>
<text text-anchor="start" x="1257" y="-160.95" font-family="Helvetica,sans-Serif" font-size="14.00">users_user_permissio_permission_id_6d08dcd2_fk_auth_perm</text>
</g>
<!-- users_user_permissions_31ac9a7d&#45;&gt;users_f89f9d1e -->
<g id="edge10" class="edge">
<title>users_user_permissions_31ac9a7d:w&#45;&gt;users_f89f9d1e:e</title>
<path fill="none" stroke="black" d="M1707.12,-278.06C1698.8,-285.57 1703.29,-304.97 1689,-314 1523.45,-418.62 1432.25,-306 1254.75,-388.75 1204.95,-411.97 1213.54,-467.61 1162.31,-470.85"/>
<polygon fill="black" stroke="black" points="1706.99,-278.1 1717.89,-279.28 1711.75,-276.55 1716.5,-275 1716.5,-275 1716.5,-275 1711.75,-276.55 1715.11,-270.72 1706.99,-278.1 1706.99,-278.1"/>
<polygon fill="black" stroke="black" points="1158.65,-475.97 1158.35,-465.97 1160.34,-465.91 1160.65,-475.91 1158.65,-475.97"/>
<polyline fill="none" stroke="black" points="1157.5,-471 1162.5,-470.85"/>
<text text-anchor="start" x="1278.75" y="-392.95" font-family="Helvetica,sans-Serif" font-size="14.00">users_user_permissions_user_id_92473840_fk_users_id</text>
</g>
<!-- django_admin_log_a55a8586 -->
<g id="node6" class="node">
<title>django_admin_log_a55a8586</title>
<polygon fill="#e9c2f2" stroke="none" points="1729,-701 1729,-722 1923,-722 1923,-701 1729,-701"/>
<text text-anchor="start" x="1730.75" y="-707.7" font-family="Helvetica,sans-Serif" font-weight="bold" font-style="italic" font-size="14.00">public.django_admin_log</text>
<polygon fill="#e9c2f2" stroke="none" points="1923,-701 1923,-722 2074,-722 2074,-701 1923,-701"/>
<text text-anchor="start" x="2027" y="-706.7" font-family="Helvetica,sans-Serif" font-size="14.00">[table]</text>
<text text-anchor="start" x="1731" y="-686.7" font-family="Helvetica,sans-Serif" font-weight="bold" font-style="italic" font-size="14.00">id</text>
<text text-anchor="start" x="1886" y="-685.7" font-family="Helvetica,sans-Serif" font-size="14.00"> </text>
<text text-anchor="start" x="1925" y="-685.7" font-family="Helvetica,sans-Serif" font-size="14.00">int4 not null</text>
<text text-anchor="start" x="1886" y="-664.7" font-family="Helvetica,sans-Serif" font-size="14.00"> </text>
<text text-anchor="start" x="1925" y="-664.7" font-family="Helvetica,sans-Serif" font-size="14.00">auto&#45;incremented</text>
<text text-anchor="start" x="1731" y="-643.7" font-family="Helvetica,sans-Serif" font-size="14.00">action_time</text>
<text text-anchor="start" x="1886" y="-643.7" font-family="Helvetica,sans-Serif" font-size="14.00"> </text>
<text text-anchor="start" x="1925" y="-643.7" font-family="Helvetica,sans-Serif" font-size="14.00">timestamptz not null</text>
<text text-anchor="start" x="1731" y="-622.7" font-family="Helvetica,sans-Serif" font-size="14.00">object_id</text>
<text text-anchor="start" x="1886" y="-622.7" font-family="Helvetica,sans-Serif" font-size="14.00"> </text>
<text text-anchor="start" x="1925" y="-622.7" font-family="Helvetica,sans-Serif" font-size="14.00">text</text>
<text text-anchor="start" x="1731" y="-601.7" font-family="Helvetica,sans-Serif" font-size="14.00">object_repr</text>
<text text-anchor="start" x="1886" y="-601.7" font-family="Helvetica,sans-Serif" font-size="14.00"> </text>
<text text-anchor="start" x="1925" y="-601.7" font-family="Helvetica,sans-Serif" font-size="14.00">varchar(200) not null</text>
<text text-anchor="start" x="1731" y="-580.7" font-family="Helvetica,sans-Serif" font-size="14.00">action_flag</text>
<text text-anchor="start" x="1886" y="-580.7" font-family="Helvetica,sans-Serif" font-size="14.00"> </text>
<text text-anchor="start" x="1925" y="-580.7" font-family="Helvetica,sans-Serif" font-size="14.00">int2 not null</text>
<text text-anchor="start" x="1731" y="-559.7" font-family="Helvetica,sans-Serif" font-size="14.00">change_message</text>
<text text-anchor="start" x="1886" y="-559.7" font-family="Helvetica,sans-Serif" font-size="14.00"> </text>
<text text-anchor="start" x="1925" y="-559.7" font-family="Helvetica,sans-Serif" font-size="14.00">text not null</text>
<text text-anchor="start" x="1731" y="-538.7" font-family="Helvetica,sans-Serif" font-size="14.00">content_type_id</text>
<text text-anchor="start" x="1886" y="-538.7" font-family="Helvetica,sans-Serif" font-size="14.00"> </text>
<text text-anchor="start" x="1925" y="-538.7" font-family="Helvetica,sans-Serif" font-size="14.00">int4</text>
<text text-anchor="start" x="1731" y="-517.7" font-family="Helvetica,sans-Serif" font-size="14.00">user_id</text>
<text text-anchor="start" x="1886" y="-517.7" font-family="Helvetica,sans-Serif" font-size="14.00"> </text>
<text text-anchor="start" x="1925" y="-517.7" font-family="Helvetica,sans-Serif" font-size="14.00">int8 not null</text>
<polygon fill="none" stroke="#888888" points="1728,-511 1728,-723 2075,-723 2075,-511 1728,-511"/>
</g>
<!-- django_admin_log_a55a8586&#45;&gt;django_content_type_f49fe0ba -->
<g id="edge6" class="edge">
<title>django_admin_log_a55a8586:w&#45;&gt;django_content_type_f49fe0ba:e</title>
<path fill="none" stroke="black" d="M1717.56,-543C1324.16,-543.28 1220.16,-559.48 824.25,-516 635.77,-495.3 577.69,-515.3 405,-437 393.52,-431.8 393.63,-420.39 384.19,-417.62"/>
<polygon fill="black" stroke="black" points="1717.5,-543 1727.5,-547.5 1722.5,-543 1727.5,-543 1727.5,-543 1727.5,-543 1722.5,-543 1727.5,-538.5 1717.5,-543 1717.5,-543"/>
<polygon fill="black" stroke="black" points="379.84,-422.09 381.14,-412.17 383.12,-412.43 381.82,-422.35 379.84,-422.09"/>
<polyline fill="none" stroke="black" points="379.5,-417 384.46,-417.65"/>
<text text-anchor="start" x="824.25" y="-549.95" font-family="Helvetica,sans-Serif" font-size="14.00">django_admin_log_content_type_id_c4bce8eb_fk_django_co</text>
</g>
<!-- django_admin_log_a55a8586&#45;&gt;users_f89f9d1e -->
<g id="edge8" class="edge">
<title>django_admin_log_a55a8586:w&#45;&gt;users_f89f9d1e:e</title>
<path fill="none" stroke="black" d="M1717.68,-521.17C1707.7,-519.34 1702.58,-514.9 1689,-512.75 1456.57,-475.93 1395.29,-471.07 1162.33,-471"/>
<polygon fill="black" stroke="black" points="1717.54,-521.16 1727.12,-526.48 1722.52,-521.58 1727.5,-522 1727.5,-522 1727.5,-522 1722.52,-521.58 1727.88,-517.52 1717.54,-521.16 1717.54,-521.16"/>
<polygon fill="black" stroke="black" points="1158.5,-476 1158.5,-466 1160.5,-466 1160.5,-476 1158.5,-476"/>
<polyline fill="none" stroke="black" points="1157.5,-471 1162.5,-471"/>
<text text-anchor="start" x="1300.5" y="-516.95" font-family="Helvetica,sans-Serif" font-size="14.00">django_admin_log_user_id_c564eba6_fk_users_id</text>
</g>
<!-- django_migrations_5b5678df -->
<g id="node8" class="node">
<title>django_migrations_5b5678df</title>
<polygon fill="#e9c2f2" stroke="none" points="1726.5,-855 1726.5,-876 1925.5,-876 1925.5,-855 1726.5,-855"/>
<text text-anchor="start" x="1728.12" y="-861.7" font-family="Helvetica,sans-Serif" font-weight="bold" font-style="italic" font-size="14.00">public.django_migrations</text>
<polygon fill="#e9c2f2" stroke="none" points="1925.5,-855 1925.5,-876 2076.5,-876 2076.5,-855 1925.5,-855"/>
<text text-anchor="start" x="2029.5" y="-860.7" font-family="Helvetica,sans-Serif" font-size="14.00">[table]</text>
<text text-anchor="start" x="1728.5" y="-840.7" font-family="Helvetica,sans-Serif" font-weight="bold" font-style="italic" font-size="14.00">id</text>
<text text-anchor="start" x="1851.5" y="-839.7" font-family="Helvetica,sans-Serif" font-size="14.00"> </text>
<text text-anchor="start" x="1927.5" y="-839.7" font-family="Helvetica,sans-Serif" font-size="14.00">int8 not null</text>
<text text-anchor="start" x="1851.5" y="-818.7" font-family="Helvetica,sans-Serif" font-size="14.00"> </text>
<text text-anchor="start" x="1927.5" y="-818.7" font-family="Helvetica,sans-Serif" font-size="14.00">auto&#45;incremented</text>
<text text-anchor="start" x="1728.5" y="-797.7" font-family="Helvetica,sans-Serif" font-size="14.00">app</text>
<text text-anchor="start" x="1851.5" y="-797.7" font-family="Helvetica,sans-Serif" font-size="14.00"> </text>
<text text-anchor="start" x="1927.5" y="-797.7" font-family="Helvetica,sans-Serif" font-size="14.00">varchar(255) not null</text>
<text text-anchor="start" x="1728.5" y="-776.7" font-family="Helvetica,sans-Serif" font-size="14.00">name</text>
<text text-anchor="start" x="1851.5" y="-776.7" font-family="Helvetica,sans-Serif" font-size="14.00"> </text>
<text text-anchor="start" x="1927.5" y="-776.7" font-family="Helvetica,sans-Serif" font-size="14.00">varchar(255) not null</text>
<text text-anchor="start" x="1728.5" y="-755.7" font-family="Helvetica,sans-Serif" font-size="14.00">applied</text>
<text text-anchor="start" x="1851.5" y="-755.7" font-family="Helvetica,sans-Serif" font-size="14.00"> </text>
<text text-anchor="start" x="1927.5" y="-755.7" font-family="Helvetica,sans-Serif" font-size="14.00">timestamptz not null</text>
<polygon fill="none" stroke="#888888" points="1725.5,-749 1725.5,-877 2077.5,-877 2077.5,-749 1725.5,-749"/>
</g>
<!-- django_session_6989c8c8 -->
<g id="node9" class="node">
<title>django_session_6989c8c8</title>
<polygon fill="#e9c2f2" stroke="none" points="1740.5,-967 1740.5,-988 1914.5,-988 1914.5,-967 1740.5,-967"/>
<text text-anchor="start" x="1742.38" y="-973.7" font-family="Helvetica,sans-Serif" font-weight="bold" font-style="italic" font-size="14.00">public.django_session</text>
<polygon fill="#e9c2f2" stroke="none" points="1914.5,-967 1914.5,-988 2062.5,-988 2062.5,-967 1914.5,-967"/>
<text text-anchor="start" x="2015.5" y="-972.7" font-family="Helvetica,sans-Serif" font-size="14.00">[table]</text>
<text text-anchor="start" x="1742.5" y="-952.7" font-family="Helvetica,sans-Serif" font-weight="bold" font-style="italic" font-size="14.00">session_key</text>
<text text-anchor="start" x="1873.5" y="-951.7" font-family="Helvetica,sans-Serif" font-size="14.00"> </text>
<text text-anchor="start" x="1916.5" y="-951.7" font-family="Helvetica,sans-Serif" font-size="14.00">varchar(40) not null</text>
<text text-anchor="start" x="1742.5" y="-930.7" font-family="Helvetica,sans-Serif" font-size="14.00">session_data</text>
<text text-anchor="start" x="1873.5" y="-930.7" font-family="Helvetica,sans-Serif" font-size="14.00"> </text>
<text text-anchor="start" x="1916.5" y="-930.7" font-family="Helvetica,sans-Serif" font-size="14.00">text not null</text>
<text text-anchor="start" x="1742.5" y="-909.7" font-family="Helvetica,sans-Serif" font-size="14.00">expire_date</text>
<text text-anchor="start" x="1873.5" y="-909.7" font-family="Helvetica,sans-Serif" font-size="14.00"> </text>
<text text-anchor="start" x="1916.5" y="-909.7" font-family="Helvetica,sans-Serif" font-size="14.00">timestamptz not null</text>
<polygon fill="none" stroke="#888888" points="1739.5,-903 1739.5,-989 2063.5,-989 2063.5,-903 1739.5,-903"/>
</g>
<!-- items_f7f6f6d6 -->
<g id="node10" class="node">
<title>items_f7f6f6d6</title>
<polygon fill="#e9c2f2" stroke="none" points="1766.5,-1247 1766.5,-1268 1885.5,-1268 1885.5,-1247 1766.5,-1247"/>
<text text-anchor="start" x="1768.5" y="-1253.7" font-family="Helvetica,sans-Serif" font-weight="bold" font-style="italic" font-size="14.00">public.items</text>
<polygon fill="#e9c2f2" stroke="none" points="1885.5,-1247 1885.5,-1268 2036.5,-1268 2036.5,-1247 1885.5,-1247"/>
<text text-anchor="start" x="1989.5" y="-1252.7" font-family="Helvetica,sans-Serif" font-size="14.00">[table]</text>
<text text-anchor="start" x="1768.5" y="-1232.7" font-family="Helvetica,sans-Serif" font-weight="bold" font-style="italic" font-size="14.00">id</text>
<text text-anchor="start" x="1879.25" y="-1231.7" font-family="Helvetica,sans-Serif" font-size="14.00"> </text>
<text text-anchor="start" x="1887.5" y="-1231.7" font-family="Helvetica,sans-Serif" font-size="14.00">int8 not null</text>
<text text-anchor="start" x="1879.25" y="-1210.7" font-family="Helvetica,sans-Serif" font-size="14.00"> </text>
<text text-anchor="start" x="1887.5" y="-1210.7" font-family="Helvetica,sans-Serif" font-size="14.00">auto&#45;incremented</text>
<text text-anchor="start" x="1768.5" y="-1189.7" font-family="Helvetica,sans-Serif" font-size="14.00">created_at</text>
<text text-anchor="start" x="1879.25" y="-1189.7" font-family="Helvetica,sans-Serif" font-size="14.00"> </text>
<text text-anchor="start" x="1887.5" y="-1189.7" font-family="Helvetica,sans-Serif" font-size="14.00">timestamptz not null</text>
<text text-anchor="start" x="1768.5" y="-1168.7" font-family="Helvetica,sans-Serif" font-size="14.00">updated_at</text>
<text text-anchor="start" x="1879.25" y="-1168.7" font-family="Helvetica,sans-Serif" font-size="14.00"> </text>
<text text-anchor="start" x="1887.5" y="-1168.7" font-family="Helvetica,sans-Serif" font-size="14.00">timestamptz not null</text>
<text text-anchor="start" x="1768.5" y="-1147.7" font-family="Helvetica,sans-Serif" font-size="14.00">title</text>
<text text-anchor="start" x="1879.25" y="-1147.7" font-family="Helvetica,sans-Serif" font-size="14.00"> </text>
<text text-anchor="start" x="1887.5" y="-1147.7" font-family="Helvetica,sans-Serif" font-size="14.00">varchar(255) not null</text>
<text text-anchor="start" x="1768.5" y="-1126.7" font-family="Helvetica,sans-Serif" font-size="14.00">category</text>
<text text-anchor="start" x="1879.25" y="-1126.7" font-family="Helvetica,sans-Serif" font-size="14.00"> </text>
<text text-anchor="start" x="1887.5" y="-1126.7" font-family="Helvetica,sans-Serif" font-size="14.00">varchar(255) not null</text>
<text text-anchor="start" x="1768.5" y="-1105.7" font-family="Helvetica,sans-Serif" font-size="14.00">status</text>
<text text-anchor="start" x="1879.25" y="-1105.7" font-family="Helvetica,sans-Serif" font-size="14.00"> </text>
<text text-anchor="start" x="1887.5" y="-1105.7" font-family="Helvetica,sans-Serif" font-size="14.00">varchar(255) not null</text>
<text text-anchor="start" x="1768.5" y="-1084.7" font-family="Helvetica,sans-Serif" font-size="14.00">opening_date</text>
<text text-anchor="start" x="1879.25" y="-1084.7" font-family="Helvetica,sans-Serif" font-size="14.00"> </text>
<text text-anchor="start" x="1887.5" y="-1084.7" font-family="Helvetica,sans-Serif" font-size="14.00">date</text>
<text text-anchor="start" x="1768.38" y="-1063.7" font-family="Helvetica,sans-Serif" font-size="14.00">expiration_date</text>
<text text-anchor="start" x="1879.25" y="-1063.7" font-family="Helvetica,sans-Serif" font-size="14.00"> </text>
<text text-anchor="start" x="1887.5" y="-1063.7" font-family="Helvetica,sans-Serif" font-size="14.00">date</text>
<text text-anchor="start" x="1768.5" y="-1042.7" font-family="Helvetica,sans-Serif" font-size="14.00">location_id</text>
<text text-anchor="start" x="1879.25" y="-1042.7" font-family="Helvetica,sans-Serif" font-size="14.00"> </text>
<text text-anchor="start" x="1887.5" y="-1042.7" font-family="Helvetica,sans-Serif" font-size="14.00">int8 not null</text>
<text text-anchor="start" x="1768.5" y="-1021.7" font-family="Helvetica,sans-Serif" font-size="14.00">upc</text>
<text text-anchor="start" x="1879.25" y="-1021.7" font-family="Helvetica,sans-Serif" font-size="14.00"> </text>
<text text-anchor="start" x="1887.5" y="-1021.7" font-family="Helvetica,sans-Serif" font-size="14.00">varchar(20)</text>
<polygon fill="none" stroke="#888888" points="1765.5,-1015 1765.5,-1269 2037.5,-1269 2037.5,-1015 1765.5,-1015"/>
</g>
<!-- locations_aa9d6674 -->
<g id="node11" class="node">
<title>locations_aa9d6674</title>
<polygon fill="#e9c2f2" stroke="none" points="891.5,-1057.5 891.5,-1078.5 1018.5,-1078.5 1018.5,-1057.5 891.5,-1057.5"/>
<text text-anchor="start" x="893.5" y="-1064.2" font-family="Helvetica,sans-Serif" font-weight="bold" font-style="italic" font-size="14.00">public.locations</text>
<polygon fill="#e9c2f2" stroke="none" points="1018.5,-1057.5 1018.5,-1078.5 1169.5,-1078.5 1169.5,-1057.5 1018.5,-1057.5"/>
<text text-anchor="start" x="1122.5" y="-1063.2" font-family="Helvetica,sans-Serif" font-size="14.00">[table]</text>
<text text-anchor="start" x="893.5" y="-1043.2" font-family="Helvetica,sans-Serif" font-weight="bold" font-style="italic" font-size="14.00">id</text>
<text text-anchor="start" x="993.5" y="-1042.2" font-family="Helvetica,sans-Serif" font-size="14.00"> </text>
<text text-anchor="start" x="1020.5" y="-1042.2" font-family="Helvetica,sans-Serif" font-size="14.00">int8 not null</text>
<text text-anchor="start" x="993.5" y="-1021.2" font-family="Helvetica,sans-Serif" font-size="14.00"> </text>
<text text-anchor="start" x="1020.5" y="-1021.2" font-family="Helvetica,sans-Serif" font-size="14.00">auto&#45;incremented</text>
<text text-anchor="start" x="893.5" y="-1000.2" font-family="Helvetica,sans-Serif" font-size="14.00">description</text>
<text text-anchor="start" x="993.5" y="-1000.2" font-family="Helvetica,sans-Serif" font-size="14.00"> </text>
<text text-anchor="start" x="1020.5" y="-1000.2" font-family="Helvetica,sans-Serif" font-size="14.00">text not null</text>
<text text-anchor="start" x="893.5" y="-979.2" font-family="Helvetica,sans-Serif" font-size="14.00">title</text>
<text text-anchor="start" x="993.5" y="-979.2" font-family="Helvetica,sans-Serif" font-size="14.00"> </text>
<text text-anchor="start" x="1020.5" y="-979.2" font-family="Helvetica,sans-Serif" font-size="14.00">varchar(255) not null</text>
<polygon fill="none" stroke="#888888" points="890.5,-972.5 890.5,-1079.5 1170.5,-1079.5 1170.5,-972.5 890.5,-972.5"/>
</g>
<!-- items_f7f6f6d6&#45;&gt;locations_aa9d6674 -->
<g id="edge7" class="edge">
<title>items_f7f6f6d6:w&#45;&gt;locations_aa9d6674:e</title>
<path fill="none" stroke="black" d="M1755.52,-1047C1500.97,-1047 1432.46,-1047 1175.45,-1047"/>
<polygon fill="black" stroke="black" points="1755.5,-1047 1765.5,-1051.5 1760.5,-1047 1765.5,-1047 1765.5,-1047 1765.5,-1047 1760.5,-1047 1765.5,-1042.5 1755.5,-1047 1755.5,-1047"/>
<polygon fill="black" stroke="black" points="1171.5,-1052 1171.5,-1042 1173.5,-1042 1173.5,-1052 1171.5,-1052"/>
<polyline fill="none" stroke="black" points="1170.5,-1047 1175.5,-1047"/>
<text text-anchor="start" x="1320" y="-1050.95" font-family="Helvetica,sans-Serif" font-size="14.00">items_location_id_10002c1b_fk_locations_id</text>
</g>
</g>
</svg>
